<svg width="29" height="29" viewBox="0 0 29 29" fill="none" xmlns="http://www.w3.org/2000/svg">
<path d="M23 23C23.7956 23 24.5587 23.3161 25.1213 23.8787C25.6839 24.4413 26 25.2044 26 26C26 26.7956 25.6839 27.5587 25.1213 28.1213C24.5587 28.6839 23.7956 29 23 29C22.2044 29 21.4413 28.6839 20.8787 28.1213C20.3161 27.5587 20 26.7956 20 26C20 25.2044 20.3161 24.4413 20.8787 23.8787C21.4413 23.3161 22.2044 23 23 23ZM23 24.5C22.6022 24.5 22.2206 24.658 21.9393 24.9393C21.658 25.2206 21.5 25.6022 21.5 26C21.5 26.3978 21.658 26.7794 21.9393 27.0607C22.2206 27.342 22.6022 27.5 23 27.5C23.3978 27.5 23.7794 27.342 24.0607 27.0607C24.342 26.7794 24.5 26.3978 24.5 26C24.5 25.6022 24.342 25.2206 24.0607 24.9393C23.7794 24.658 23.3978 24.5 23 24.5ZM9.5 23C10.2956 23 11.0587 23.3161 11.6213 23.8787C12.1839 24.4413 12.5 25.2044 12.5 26C12.5 26.7956 12.1839 27.5587 11.6213 28.1213C11.0587 28.6839 10.2956 29 9.5 29C8.70435 29 7.94129 28.6839 7.37868 28.1213C6.81607 27.5587 6.5 26.7956 6.5 26C6.5 25.2044 6.81607 24.4413 7.37868 23.8787C7.94129 23.3161 8.70435 23 9.5 23ZM9.5 24.5C9.10218 24.5 8.72064 24.658 8.43934 24.9393C8.15804 25.2206 8 25.6022 8 26C8 26.3978 8.15804 26.7794 8.43934 27.0607C8.72064 27.342 9.10218 27.5 9.5 27.5C9.89782 27.5 10.2794 27.342 10.5607 27.0607C10.842 26.7794 11 26.3978 11 26C11 25.6022 10.842 25.2206 10.5607 24.9393C10.2794 24.658 9.89782 24.5 9.5 24.5ZM26 5H5.4095L9.23 14H21.5C21.7332 14.0004 21.9633 13.946 22.1717 13.8413C22.3801 13.7365 22.5611 13.5844 22.7 13.397L27.2 7.397H27.2015C27.3679 7.17403 27.4689 6.9092 27.4934 6.63209C27.5179 6.35499 27.4649 6.07653 27.3402 5.82784C27.2156 5.57914 27.0242 5.37002 26.7875 5.22382C26.5509 5.07763 26.2782 5.00014 26 5ZM21.5 15.5H9.299L8.15 17.84L8 18.5C8 18.8978 8.15804 19.2794 8.43934 19.5607C8.72064 19.842 9.10218 20 9.5 20H26V21.5H9.5C8.97765 21.5003 8.46428 21.3641 8.0107 21.1051C7.55712 20.846 7.17903 20.473 6.91386 20.023C6.64869 19.5729 6.50561 19.0614 6.4988 18.5391C6.49198 18.0168 6.62166 17.5018 6.875 17.045L7.955 14.834L2.507 2H0.5V0.5H3.5L4.7735 3.5H26C26.5668 3.50005 27.122 3.66068 27.6013 3.96328C28.0806 4.26588 28.4643 4.69807 28.7081 5.20978C28.9519 5.7215 29.0457 6.2918 28.9787 6.85464C28.9117 7.41748 28.6866 7.94982 28.3295 8.39L23.9585 14.219C23.6821 14.6147 23.3143 14.9378 22.8863 15.1608C22.4582 15.3839 21.9827 15.5002 21.5 15.5Z" fill="white"/>
</svg>
