<svg width="19" height="17" viewBox="0 0 19 17" fill="none" xmlns="http://www.w3.org/2000/svg">
<path d="M2.24403 8.25205C1.81568 7.82358 1.48389 7.30849 1.2709 6.7413C1.05792 6.17412 0.968659 5.56795 1.00911 4.96344C1.04957 4.35894 1.2188 3.77007 1.50547 3.23632C1.79213 2.70257 2.1896 2.23628 2.67123 1.86872C3.15285 1.50116 3.70749 1.24082 4.29796 1.10515C4.88844 0.969487 5.50109 0.961637 6.09485 1.08213C6.6886 1.20262 7.24974 1.44866 7.74062 1.80376C8.2315 2.15887 8.64079 2.61482 8.94103 3.14105H10.059C10.3593 2.61482 10.7686 2.15887 11.2595 1.80376C11.7503 1.44866 12.3115 1.20262 12.9052 1.08213C13.499 0.961637 14.1116 0.969487 14.7021 1.10515C15.2926 1.24082 15.8472 1.50116 16.3288 1.86872C16.8105 2.23628 17.2079 2.70257 17.4946 3.23632C17.7813 3.77007 17.9505 4.35894 17.991 4.96344C18.0314 5.56795 17.9422 6.17412 17.7292 6.7413C17.5162 7.30849 17.1844 7.82358 16.756 8.25205L9.50003 15.51L2.24403 8.25305V8.25205ZM17.462 8.96205C17.9742 8.44987 18.3748 7.83726 18.6387 7.16275C18.9026 6.48823 19.0241 5.76641 18.9955 5.04267C18.9669 4.31894 18.7889 3.60894 18.4726 2.95735C18.1563 2.30575 17.7086 1.72665 17.1577 1.25646C16.6067 0.786273 15.9645 0.435172 15.2713 0.225238C14.578 0.0153049 13.8489 -0.0489186 13.1297 0.0366068C12.4104 0.122132 11.7167 0.355556 11.092 0.722199C10.4674 1.08884 9.92535 1.58077 9.50003 2.16705C9.07472 1.58077 8.5327 1.08884 7.90805 0.722199C7.2834 0.355556 6.58964 0.122132 5.87041 0.0366068C5.15117 -0.0489186 4.42202 0.0153049 3.72881 0.225238C3.0356 0.435172 2.39333 0.786273 1.84239 1.25646C1.29145 1.72665 0.843762 2.30575 0.52748 2.95735C0.211198 3.60894 0.0331654 4.31894 0.00457904 5.04267C-0.0240073 5.76641 0.0974711 6.48823 0.361374 7.16275C0.625278 7.83726 1.0259 8.44987 1.53803 8.96205L9.50003 16.923L17.462 8.96305V8.96205Z" fill="#939393"/>
</svg>
