<svg width="12" height="12" viewBox="0 0 12 12" fill="none" xmlns="http://www.w3.org/2000/svg">
<path opacity="0.7" fill-rule="evenodd" clip-rule="evenodd" d="M10.4887 3.00055C10.4887 3.41348 10.1542 3.75014 9.74015 3.75014H8.99056C8.57654 3.75014 8.24097 3.41348 8.24097 3.00055V2.24987C8.24097 1.83694 8.57654 1.50027 8.99056 1.50027H9.74015C10.1542 1.50027 10.4887 1.83694 10.4887 2.24987V3.00055ZM10.4886 9.75014C10.4886 10.1652 10.1541 10.5008 9.74006 10.5008H2.24959C1.83448 10.5008 1.5 10.1652 1.5 9.75014V6C1.5 5.58489 1.83448 5.25041 2.24959 5.25041H3.10487C3.04167 5.49119 2.99809 5.7396 2.99809 6C2.99809 7.65716 4.3393 8.99945 5.99428 8.99945C7.64926 8.99945 8.99047 7.65716 8.99047 6C8.99047 5.7396 8.9458 5.49119 8.88369 5.25041H9.74006C10.1541 5.25041 10.4886 5.58489 10.4886 6V9.75014ZM5.99431 4.50082C7.37365 4.50082 7.4924 6 7.4924 6C7.4924 6 7.53708 7.50027 5.99431 7.50027C4.45264 7.50027 4.49622 6 4.49622 6C4.49622 6 4.61498 4.50082 5.99431 4.50082ZM10.4886 0H1.50005C0.673099 0 0.00195312 0.672235 0.00195312 1.50027V10.5008C0.00195312 11.3289 0.673099 12 1.50005 12H10.4886C11.3156 12 11.9867 11.3289 11.9867 10.5008V1.50027C11.9867 0.672235 11.3156 0 10.4886 0Z" fill="#939393"/>
</svg>
