<svg width="12" height="10" viewBox="0 0 12 10" fill="none" xmlns="http://www.w3.org/2000/svg">
<path opacity="0.7" fill-rule="evenodd" clip-rule="evenodd" d="M12 1.16182C11.5582 1.35818 11.0847 1.49236 10.5862 1.55236C11.0945 1.24691 11.4851 0.760364 11.6684 0.181091C11.1927 0.464727 10.6658 0.672 10.1051 0.782182C9.65673 0.301091 9.01636 0 8.30836 0C6.94909 0 5.84618 1.10945 5.84618 2.47855C5.84618 2.67273 5.868 2.86255 5.90945 3.04364C3.864 2.94 2.04982 1.95273 0.835636 0.453818C0.624 0.819273 0.501818 1.24473 0.501818 1.69964C0.501818 2.55927 0.937091 3.31855 1.59709 3.76255C1.19345 3.74945 0.813818 3.63818 0.482182 3.45273C0.482182 3.46364 0.482182 3.47345 0.482182 3.48327C0.482182 4.68436 1.33091 5.68691 2.45673 5.91382C2.25055 5.97164 2.03236 6.00109 1.80873 6.00109C1.64945 6.00109 1.49564 5.98582 1.34509 5.95745C1.65818 6.94145 2.568 7.65818 3.64473 7.67782C2.80255 8.34327 1.74109 8.73818 0.586909 8.73818C0.388364 8.73818 0.193091 8.72727 0 8.70436C1.08982 9.408 2.38364 9.81818 3.77345 9.81818C8.30291 9.81818 10.7782 6.04145 10.7782 2.76655C10.7782 2.65855 10.776 2.55055 10.7716 2.44582C11.2527 2.09564 11.6695 1.65927 12 1.16182Z" fill="#939393"/>
</svg>
